<svg width="295" height="93" viewBox="0 0 295 93" fill="none" xmlns="http://www.w3.org/2000/svg">
<g clip-path="url(#clip0_92_402)">
<path d="M78.2592 49.8529V79.2C78.2592 86.229 72.5915 91.9206 65.6011 91.9206H36.4146C29.4237 91.9206 23.7562 86.2218 23.7562 79.2V73.8918H41.8447C48.8356 73.8918 54.5032 68.193 54.5032 61.1706V37.132H65.6011C72.5915 37.132 78.2592 42.8308 78.2592 49.8529Z" fill="#3A3258"/>
<path d="M54.5032 31.8237V37.1319H36.4145C29.4236 37.1319 23.7561 42.8305 23.7561 49.8527V73.8912H12.6584C5.66752 73.8912 0 68.193 0 61.1706V31.8237C0 24.7942 5.66752 19.1028 12.6584 19.1028H41.8447C48.8356 19.1028 54.5032 24.8015 54.5032 31.8237Z" fill="#3A3258"/>
<path d="M216.928 11.5309C216.792 16.8897 212.289 21.1565 206.808 21.1131C201.349 21.0697 197.207 16.774 197.228 11.191C197.25 5.75984 201.695 1.21822 206.931 1.23992C212.26 1.26161 217.064 6.21545 216.921 11.5237L216.928 11.5309Z" fill="#3A3258"/>
<path d="M295 0.162903H279.415V90.8868H295V0.162903Z" fill="#3A3258"/>
<path d="M157.549 27.0582C148.868 26.241 141.208 28.5552 134.504 35.7799V3.88007H118.832V90.9156H134.569V84.4794C147.566 97.374 166.265 93.765 175.277 84.3924C187.332 71.874 188.562 51.6539 177.687 38.3689C172.429 31.9398 165.899 27.861 157.549 27.0655V27.0582ZM151.457 77.6238C141.43 77.5008 134.483 70.0734 134.562 59.5801C134.648 49.3252 141.977 42.2018 152.247 42.4115C162.166 42.6068 169.063 49.9472 168.948 60.1728C168.826 70.4784 161.533 77.754 151.464 77.631L151.457 77.6238Z" fill="#3A3258"/>
<path d="M214.784 29.039H199.141V90.9438H214.784V29.039Z" fill="#3A3258"/>
<path d="M266.979 27.5063V45.0364C265.375 45.1593 263.915 45.1882 262.484 45.3979C252.897 46.772 248.294 52.0295 248.236 61.7418C248.179 70.095 248.222 78.4548 248.222 86.8152V91.002H232.478V29.0249H248.028V37.3271C252.839 30.992 258.866 27.5569 266.979 27.5207V27.5063Z" fill="#3A3258"/>
</g>
<defs>
<clipPath id="clip0_92_402">
<rect width="295" height="93" fill="white"/>
</clipPath>
</defs>
</svg>
