<svg width="494" height="155" viewBox="0 0 494 155" fill="none" xmlns="http://www.w3.org/2000/svg">
<path d="M131.051 83.0882V132C131.051 143.715 121.56 153.201 109.854 153.201H60.979C49.2722 153.201 39.7815 143.703 39.7815 132V123.153H70.0722C81.779 123.153 91.2697 113.655 91.2697 101.951V61.8867H109.854C121.56 61.8867 131.051 71.3846 131.051 83.0882Z" fill="black"/>
<path d="M91.2697 53.0394V61.8864H60.9789C49.2721 61.8864 39.7814 71.3842 39.7814 83.0878V123.152H21.1975C9.4907 123.152 0 113.655 0 101.951V53.0394C0 41.3237 9.4907 31.8379 21.1975 31.8379H70.0722C81.779 31.8379 91.2697 41.3358 91.2697 53.0394Z" fill="black"/>
<path d="M363.262 19.2182C363.034 28.1495 355.494 35.2609 346.316 35.1886C337.175 35.1162 330.238 27.9567 330.274 18.6517C330.31 9.59975 337.753 2.03038 346.521 2.06654C355.446 2.10269 363.491 10.3591 363.25 19.2061L363.262 19.2182Z" fill="black"/>
<path d="M494 0.271484H467.901V151.478H494V0.271484Z" fill="black"/>
<path d="M263.827 45.0971C249.29 43.7351 236.463 47.5921 225.238 59.6332V6.4668H198.994V151.526H225.346V140.799C247.11 162.29 278.424 156.275 293.515 140.654C313.701 119.79 315.761 86.0898 297.55 63.9482C288.746 53.233 277.81 46.435 263.827 45.1092V45.0971ZM253.626 129.373C236.836 129.168 225.202 116.789 225.334 99.3001C225.479 82.2087 237.752 70.3364 254.95 70.6859C271.559 71.0114 283.109 83.2453 282.917 100.288C282.712 117.464 270.499 129.59 253.638 129.385L253.626 129.373Z" fill="black"/>
<path d="M359.673 48.3984H333.477V151.573H359.673V48.3984Z" fill="black"/>
<path d="M447.077 45.8438V75.0606C444.391 75.2655 441.946 75.3137 439.549 75.6632C423.495 77.9533 415.787 86.7159 415.69 102.903C415.594 116.825 415.666 130.758 415.666 144.692V151.67H389.302V48.3749H415.341V62.2119C423.398 51.6534 433.491 45.9281 447.077 45.8679V45.8438Z" fill="black"/>
</svg>
