<?xml version="1.0" encoding="UTF-8"?>
<svg width="700pt" height="700pt" version="1.1" viewBox="0 0 700 700" xmlns="http://www.w3.org/2000/svg">
 <path d="m597.21 378.43h-151.26c-2.8984 0-5.6875 1.1484-7.7383 3.1992-2.0508 2.0508-3.1992 4.8398-3.1992 7.7383v52.281c0 2.8984 1.1484 5.6875 3.1992 7.7383 2.0508 2.0508 4.8398 3.1992 7.7383 3.1992h151.26c2.8984 0 5.6875-1.1484 7.7383-3.1992s3.1992-4.8398 3.1992-7.7383v-52.281c0-2.8984-1.1484-5.6875-3.1992-7.7383-2.0508-2.0508-4.8398-3.1992-7.7383-3.1992zm-10.938 52.281h-129.39v-30.406h129.39z"/>
 <path d="m184.62 451.04-57.613 49.684-15.695-21.055c-3.6641-4.7031-10.418-5.6328-15.176-2.0508-4.7852 3.5547-5.8242 10.281-2.3789 15.121l22.695 30.461h0.027344c1.832 2.4336 4.5664 3.9922 7.5742 4.3203 3.0078 0.32812 6.0156-0.60156 8.3398-2.5703l66.5-57.367c4.4297-3.9648 4.8672-10.773 0.98437-15.285-3.8828-4.5117-10.691-5.0586-15.258-1.2578z"/>
 <path d="m597.21 332.28h-151.26c-5.9609 0.10938-10.719 4.9766-10.719 10.938s4.7578 10.828 10.719 10.938h151.26c5.9609-0.10938 10.719-4.9766 10.719-10.938s-4.7578-10.828-10.719-10.938z"/>
 <path d="m607.34 104.95h-463.09c-26.988 0.027344-48.863 21.875-48.891 48.863-0.30078 62.645 0.21875 178.11 0 241.64-32.211 19.688-51.789 54.797-51.598 92.531-0.4375 27.918 10.172 54.852 29.559 74.922 19.387 20.07 45.938 31.637 73.828 32.156 26.031-0.41016 50.941-10.5 69.945-28.273 19.004-17.746 30.734-41.945 32.922-67.867h354.46c29.012-0.46484 52.145-24.336 51.762-53.348v-183.36c0.082031-16.133-0.054688-90.84 0-108.36v-0.027344c-0.027344-26.988-21.902-48.836-48.891-48.863zm-490.11 133.43v-38.418h517.12v38.418c2.0508 1.832-519.15 1.832-517.12 0zm27.016-111.57h463.09c14.902 0 26.988 12.086 27.016 26.988v24.281h-517.12v-24.281c0.027344-14.902 12.113-26.988 27.016-26.988zm2.8984 446.39v-0.027344c-45.992-1.0664-82.469-39.184-81.516-85.203 3.8828-112.79 159.2-112.76 163.05 0 0.92969 46.02-35.52 84.141-81.535 85.203zm487.21-127.64c0.41016 16.926-12.961 31.008-29.887 31.473h-354.46c-2.1875-25.922-13.918-50.094-32.922-67.867-19.004-17.773-43.914-27.836-69.945-28.273-10.145 0-20.234 1.5586-29.914 4.6211v-124.3c0.082032 0.98438 518.99-1.8594 517.12 0.95703z"/>
</svg>
