<svg width="365" height="339" viewBox="0 0 365 339" fill="none" xmlns="http://www.w3.org/2000/svg">
<path d="M365 143.206V279.794C365 312.51 338.692 339 306.24 339H170.76C138.308 339 112 312.477 112 279.794V255.088H195.966C228.417 255.088 254.726 228.565 254.726 195.882V84H306.24C338.692 84 365 110.523 365 143.206Z" fill="black"/>
<path d="M255 59.206V83.9117H170.37C137.662 83.9117 111.146 110.435 111.146 143.118V255H59.2241C26.5162 255 0 228.477 0 195.794V59.206C0 26.4896 26.5162 0 59.2241 0H195.776C228.484 0 255 26.5232 255 59.206Z" fill="black"/>
</svg>
