<?xml version="1.0" encoding="UTF-8"?>
<svg width="700pt" height="700pt" version="1.1" viewBox="0 0 700 700" xmlns="http://www.w3.org/2000/svg">
 <path d="m294.7 259.35c2.2383 3.8516 0.91016 8.8203-2.9414 11.129-2.5195 1.4688-4.9688 2.8711-7.4883 4.2695-1.2617 0.69922-2.6602 1.0508-3.9883 1.0508-2.8711 0-5.6016-1.4688-7.0703-4.1289-2.1719-3.9219-0.83984-8.8906 3.0781-11.059 2.4492-1.3984 4.8984-2.8008 7.2812-4.1992 3.918-2.2422 8.8906-0.91406 11.129 2.9375zm79.379-57.332c-2.9414-3.4297-8.0508-3.7812-11.48-0.91016-16.238 13.859-34.648 27.512-54.672 40.391-3.7812 2.4492-4.8281 7.4883-2.4492 11.199 1.5391 2.3789 4.1992 3.7109 6.8594 3.7109 1.5391 0 3.0117-0.42188 4.4102-1.3281 20.648-13.301 39.621-27.301 56.422-41.719 3.4336-2.8047 3.8516-7.9844 0.91016-11.344zm180.81 249.55c5.3203 19.879-6.5117 40.32-26.391 45.641-3.2188 0.83984-6.4414 1.2617-9.6602 1.2617-16.449 0-31.57-10.988-36.051-27.648l-0.69922-2.6602c-50.75-26.531-126.63-33.18-194.18-29.75l2.0312 3.5703c5.25 9.0312 5.8789 19.32 1.8906 28.98s-11.762 16.449-21.84 19.109l-3.7109 0.98047 40.531 70.211c6.4414 11.199 8.1914 24.219 4.8281 36.82-3.3594 12.531-11.34 23.031-22.539 29.469-7.6289 4.4102-15.961 6.5117-24.148 6.5117-16.801 0-33.109-8.6797-42.07-24.219l-83.512-144.84-33.738 9.0312c-4.7617 1.3281-9.5938 1.957-14.352 1.957-24.57 0-47.039-16.379-53.691-41.23l-18.691-69.719c-7.9102-29.609 9.7305-60.129 39.34-68.109l84.629-22.68c73.57-21.84 196.91-85.68 244.44-160.37l-0.28125-1.0508c-2.5898-9.5898-1.2617-19.602 3.7812-28.281 4.9688-8.6094 13.02-14.84 22.609-17.359 9.5898-2.5898 19.602-1.2617 28.281 3.7812 8.6094 4.9688 14.84 13.02 17.359 22.609l34.719 129.64 21.77 3.7109c12.809 2.1719 22.82 11.34 26.18 23.871l6.2305 23.238c3.3594 12.531-0.76953 25.48-10.781 33.738l-17.012 14.07zm-56.492-211.05 17.148 64.121 11.27-9.3086c5.1094-4.2695 7.1406-10.641 5.4609-17.012l-6.2305-23.238c-1.75-6.4414-6.6484-10.922-13.23-12.039zm-320.04 197.26-39.059-145.67-76.859 20.582c-20.93 5.6016-33.461 27.23-27.789 48.16l18.691 69.719c5.6016 20.93 27.23 33.461 48.16 27.789zm114.52 131.6-71.68-124.11c-11.129 1.8203-21.559 3.8516-30.941 6.1602l-34.648 9.3086 81.41 140.98c8.8906 15.398 28.629 20.719 44.031 11.828 7.4219-4.2695 12.738-11.27 14.98-19.602 2.2383-8.4648 1.1172-17.145-3.1523-24.566zm-22.957-129.85c-10.781 0.83984-21.352 1.8906-31.359 3.2188l19.461 33.738 7.9102-2.1016c5.25-1.3984 8.9609-4.6211 10.988-9.6602 2.1016-5.0391 1.75-9.9414-0.98047-14.629zm206.71 7.8398-83.789-312.76c-54.809 73.988-169.4 131.04-237.93 152.95l39.199 146.3c70.281-15.258 198.1-23.168 282.52 13.512zm62.582 8.3984-95.898-357.91c-1.4688-5.3906-4.8984-9.9414-9.8008-12.738-3.2891-1.8906-6.8594-2.8711-10.5-2.8711-1.8203 0-3.6406 0.21094-5.3906 0.69922-5.3906 1.4688-9.9414 4.8984-12.738 9.8008-2.8008 4.8984-3.5703 10.57-2.1016 15.961l95.898 357.91c3.0117 11.199 14.559 17.852 25.762 14.84 11.129-2.9414 17.777-14.492 14.77-25.691zm143.5-230.3c-1.1914-4.3398-5.6016-6.9297-9.9414-5.7383l-76.02 20.371c-4.3398 1.1914-6.9297 5.6016-5.7383 9.9414 0.98047 3.6406 4.2695 6.0195 7.8398 6.0195 0.69922 0 1.3984-0.070312 2.1016-0.28125l76.02-20.371c4.3359-1.1211 6.9258-5.6016 5.7383-9.9414zm-8.6094 129.36-68.18-39.34c-3.8516-2.2383-8.8203-0.91016-11.059 2.9414-2.2383 3.8516-0.91016 8.8203 2.9414 11.059l68.18 39.34c1.2617 0.76953 2.6602 1.1211 4.0586 1.1211 2.8008 0 5.5312-1.4688 7.0703-4.0586 2.168-3.8516 0.83594-8.75-3.0117-11.062zm-66.5-248.15c-3.8516-2.2383-8.8203-0.91016-11.059 2.9414l-39.34 68.18c-2.2383 3.8516-0.91016 8.8203 2.9414 11.059 1.2617 0.76953 2.6602 1.1211 4.0586 1.1211 2.8008 0 5.5312-1.4688 7.0703-4.0586l39.34-68.18c2.168-3.8516 0.83594-8.8203-3.0117-11.062z"/>
</svg>
