<?xml version="1.0" encoding="iso-8859-1"?>
<!-- Generator: Adobe Illustrator 19.0.0, SVG Export Plug-In . SVG Version: 6.00 Build 0)  -->
<svg version="1.1" id="Capa_1" xmlns="http://www.w3.org/2000/svg" xmlns:xlink="http://www.w3.org/1999/xlink" x="0px" y="0px"
	 viewBox="0 0 512 512" style="enable-background:new 0 0 512 512;" xml:space="preserve">
<g>
	<g>
		<path d="M109.995,126.006c-5.52,0-10,4.48-10,10s4.48,10,10,10s10-4.48,10-10S115.515,126.006,109.995,126.006z"/>
	</g>
</g>
<g>
	<g>
		<path d="M470.925,211.53l-14.469-28.939c-5.116-10.232-15.397-16.587-26.833-16.587h-83.637V96.007
			c0-16.541-13.457-29.999-29.999-29.999H29.999C13.457,66.008,0,79.465,0,96.007v259.989c0,16.541,13.457,29.999,29.999,29.999
			h29.999c0,15.354,5.805,29.375,15.326,39.998H10c-5.523,0-10,4.478-10,10s4.477,10,10,10h491.98c5.523,0,10-4.478,10-10
			s-4.477-10-10-10h-25.326c9.522-10.624,15.326-24.644,15.326-39.998c0-0.57-0.027-1.137-0.043-1.706
			c11.661-4.116,20.042-15.241,20.042-28.293v-55.278C511.979,289.049,514.29,299.943,470.925,211.53z M455.801,226.001
			l29.999,59.998h-99.816v-59.998H455.801z M19.999,305.998h19.999v19.999H19.999V305.998z M119.995,425.993
			c-22.055,0-39.998-17.944-39.998-39.998c0-2.724,0.27-5.405,0.81-8.012c3.761-18.534,20.242-31.987,39.188-31.987
			s35.428,13.452,39.188,31.987c0.003,0.015,0.006,0.028,0.009,0.042c0.532,2.564,0.801,5.246,0.801,7.97
			C159.993,408.05,142.05,425.993,119.995,425.993z M119.995,325.997c-25.621,0-48.232,16.413-56.568,39.998H29.999
			c-5.514,0-10-4.486-10-10v-10h29.999c5.523,0,10-4.478,10-10v-39.998c0-5.522-4.477-10-10-10H19.999V96.007
			c0-5.514,4.486-10,10-10h285.988c5.514,0,10,4.486,10,10c0,7.439,0,246.008,0,269.989H176.558
			C168.207,342.398,145.605,325.997,119.995,325.997z M164.666,425.993c9.522-10.624,15.326-24.644,15.326-39.998
			c7.678,0,188.723,0,191.992,0c0,15.354,5.805,29.375,15.326,39.998H164.666z M431.982,425.993
			c-22.055,0-39.998-17.944-39.998-39.998c0-2.724,0.27-5.405,0.81-8.012c3.761-18.534,20.242-31.987,39.188-31.987
			s35.428,13.452,39.188,31.987c0.003,0.015,0.006,0.028,0.009,0.042c0.532,2.564,0.801,5.246,0.801,7.97
			C471.981,408.05,454.037,425.993,431.982,425.993z M491.98,355.996c0,3.326-1.639,6.269-4.144,8.089
			c-8.871-22.569-30.941-38.087-55.854-38.087c-25.621,0-48.232,16.413-56.568,39.998h-29.429V186.003h83.637
			c3.812,0,7.239,2.12,8.945,5.531l7.234,14.468h-69.816c-5.523,0-10,4.478-10,10v79.997c0,5.522,4.477,10,10,10H491.98V355.996z"/>
	</g>
</g>
<g>
	<g>
		<path d="M275.989,126.006H149.994c-5.523,0-10,4.478-10,10s4.477,10,10,10h125.995c5.523,0,10-4.478,10-10
			S281.511,126.006,275.989,126.006z"/>
	</g>
</g>
<g>
	<g>
		<path d="M275.989,166.004h-85.997c-5.523,0-10,4.478-10,10s4.477,10,10,10h85.997c5.523,0,10-4.478,10-10
			S281.511,166.004,275.989,166.004z"/>
	</g>
</g>
<g>
	<g>
		<path d="M431.982,365.996c-11.028,0-19.999,8.972-19.999,19.999c0,11.028,8.972,19.999,19.999,19.999
			c11.028,0,19.999-8.972,19.999-19.999C451.981,374.967,443.01,365.996,431.982,365.996z"/>
	</g>
</g>
<g>
	<g>
		<path d="M119.995,365.996c-11.028,0-19.999,8.972-19.999,19.999c0,11.028,8.972,19.999,19.999,19.999
			c11.028,0,19.999-8.972,19.999-19.999C139.994,374.967,131.023,365.996,119.995,365.996z"/>
	</g>
</g>
<g>
</g>
<g>
</g>
<g>
</g>
<g>
</g>
<g>
</g>
<g>
</g>
<g>
</g>
<g>
</g>
<g>
</g>
<g>
</g>
<g>
</g>
<g>
</g>
<g>
</g>
<g>
</g>
<g>
</g>
</svg>
