<?xml version="1.0" encoding="UTF-8"?>
<svg width="700pt" height="700pt" version="1.1" viewBox="0 0 700 700" xmlns="http://www.w3.org/2000/svg">
 <path d="m548.1 77.699h-396.2c-14.699 0-26.602 11.898-26.602 26.602v489.3c0 14.699 11.898 26.602 26.602 26.602h395.5c14.699 0 26.602-11.898 26.602-26.602v-488.6c0.69922-14.699-11.199-27.301-25.898-27.301zm-198.1 135.8c-67.199 0-124.6-51.801-132.3-118.3h23.102c2.8008 14 7.6992 27.301 14.699 38.5 19.602 32.199 54.602 53.199 94.5 53.199s74.898-21 94.5-53.199c7-11.199 11.898-24.5 14.699-38.5h23.102c-7.6992 67.199-64.402 118.3-132.3 118.3zm23.801 15.398-23.102 25.898-22.398-25.898c7 0.69922 14 1.3984 21.699 1.3984 8.3984 0.70312 16.102 0.003906 23.801-1.3984zm60.199-112.7h-168c-3.5-6.3008-5.6016-13.301-7-21h182.7c-2.0977 7.6992-4.1992 14.699-7.6992 21zm-10.5 17.5c-17.5 21.699-43.398 35.699-73.5 35.699-29.398 0-56-14-73.5-35.699zm133.7 460.6c0 4.8984-4.1992 9.1016-9.1016 9.1016l-396.2-0.003906c-4.8984 0-9.1016-4.1992-9.1016-9.1016l0.003906-489.3c0-4.8984 4.1992-9.1016 9.1016-9.1016h47.602c5.6016 58.801 45.5 107.1 98.699 126.7l40.602 46.898-22.406 24.504 13.301 11.898 21-23.801 20.301 23.801 13.301-11.199-21.699-25.199 41.301-46.898-0.69922-0.69922c51.801-19.602 91-67.898 96.602-126h47.602c4.8984 0 9.1016 4.1992 9.1016 9.1016l-0.007812 489.3z"/>
</svg>
