<svg xmlns="http://www.w3.org/2000/svg" xmlns:xlink="http://www.w3.org/1999/xlink" version="1.1" x="0px" y="0px" viewBox="0 0 64 80" style="enable-background:new 0 0 64 64;" xml:space="preserve"><g><path d="M1.78,23.85c-0.54,0-0.97-0.43-0.97-0.97v-6.51c0-2.44,1.98-4.43,4.42-4.43h10.5c0.54,0,0.97,0.43,0.97,0.97   c0,0.54-0.43,0.97-0.97,0.97H5.23c-1.37,0-2.48,1.12-2.48,2.49v6.51C2.75,23.41,2.32,23.85,1.78,23.85z"/><g><path d="M54.55,22.36c-0.54,0-0.97-0.43-0.97-0.97v-5.02c0-1.37-1.12-2.49-2.49-2.49h-3.11c-0.54,0-0.97-0.43-0.97-0.97    c0-0.54,0.43-0.97,0.97-0.97h3.11c2.44,0,4.43,1.99,4.43,4.43v5.02C55.52,21.93,55.09,22.36,54.55,22.36z"/><path d="M46.62,22.36c-0.28,0-0.55-0.12-0.74-0.34c-0.35-0.41-0.29-1.02,0.11-1.37l4.23-3.58L38.02,2.66L34.08,6    c-0.41,0.35-1.02,0.3-1.37-0.11c-0.35-0.41-0.3-1.02,0.11-1.37l4.68-3.97c0.41-0.35,1.02-0.3,1.37,0.11l13.46,15.89    c0.35,0.41,0.29,1.02-0.11,1.37l-4.97,4.21C47.06,22.29,46.84,22.36,46.62,22.36z"/><g><path d="M5.72,22.36c-0.28,0-0.55-0.12-0.74-0.34c-0.35-0.41-0.3-1.02,0.11-1.37L29.2,0.23c0.2-0.17,0.45-0.25,0.71-0.23     c0.26,0.02,0.49,0.14,0.66,0.34l13.46,15.89c0.17,0.2,0.25,0.45,0.23,0.71c-0.02,0.26-0.14,0.49-0.34,0.66l-5.35,4.53     c-0.41,0.34-1.02,0.29-1.37-0.11c-0.35-0.41-0.29-1.02,0.11-1.37l4.61-3.9L29.71,2.34L6.34,22.13     C6.16,22.29,5.94,22.36,5.72,22.36z"/></g><g><g><g><g><g><path d="M62.11,50H44.77c-2.18,0-4.24-0.85-5.78-2.39c-1.55-1.55-2.4-3.6-2.4-5.78c0-4.51,3.67-8.17,8.17-8.17h17.35         c0.08,0,0.23,0,0.41,0.06c0.51,0.17,0.78,0.72,0.61,1.23c-0.15,0.45-0.61,0.72-1.06,0.65H44.77c-3.44,0-6.23,2.8-6.23,6.23         c0,1.66,0.65,3.23,1.83,4.41c1.17,1.17,2.74,1.82,4.41,1.82h17.32c0.45-0.07,0.91,0.2,1.06,0.65         c0.17,0.51-0.11,1.06-0.61,1.23C62.35,50,62.2,50,62.11,50z M61.92,48.1C61.92,48.1,61.91,48.1,61.92,48.1         C61.91,48.1,61.92,48.1,61.92,48.1z"/></g></g></g><g><g><g><path d="M45.03,46.61c-2.63,0-4.78-2.14-4.78-4.78c0-2.63,2.14-4.78,4.78-4.78c2.63,0,4.78,2.14,4.78,4.78         C49.81,44.47,47.66,46.61,45.03,46.61z M45.03,38.99c-1.57,0-2.84,1.27-2.84,2.84s1.27,2.84,2.84,2.84s2.84-1.27,2.84-2.84         S46.59,38.99,45.03,38.99z"/></g></g></g></g></g><g><path d="M59.28,64H4.72c-2.15,0-3.91-1.75-3.91-3.91v-38.7c0-0.54,0.43-0.97,0.97-0.97h57.5c2.15,0,3.91,1.75,3.91,3.91v35.76     C63.19,62.25,61.44,64,59.28,64z M2.75,22.36v37.73c0,1.09,0.88,1.97,1.97,1.97h54.56c1.09,0,1.97-0.88,1.97-1.97V24.33     c0-1.09-0.88-1.97-1.97-1.97H2.75z"/></g></g></g><text x="0" y="79" fill="#000000" font-size="5px" font-weight="bold" font-family="'Helvetica Neue', Helvetica, Arial-Unicode, Arial, Sans-serif">Created by BinikSol</text><text x="0" y="84" fill="#000000" font-size="5px" font-weight="bold" font-family="'Helvetica Neue', Helvetica, Arial-Unicode, Arial, Sans-serif">from the Noun Project</text></svg>