<svg width="64" height="80" viewBox="0 0 64 80" fill="none" xmlns="http://www.w3.org/2000/svg">
<g clip-path="url(#clip0_317_425)">
<path d="M1.78 23.85C1.24 23.85 0.809998 23.42 0.809998 22.88V16.37C0.809998 13.93 2.79 11.94 5.23 11.94H15.73C16.27 11.94 16.7 12.37 16.7 12.91C16.7 13.45 16.27 13.88 15.73 13.88H5.23C3.86 13.88 2.75 15 2.75 16.37V22.88C2.75 23.41 2.32 23.85 1.78 23.85Z" fill="black"/>
<path d="M54.55 22.36C54.01 22.36 53.58 21.93 53.58 21.39V16.37C53.58 15 52.46 13.88 51.09 13.88H47.98C47.44 13.88 47.01 13.45 47.01 12.91C47.01 12.37 47.44 11.94 47.98 11.94H51.09C53.53 11.94 55.52 13.93 55.52 16.37V21.39C55.52 21.93 55.09 22.36 54.55 22.36Z" fill="black"/>
<path d="M46.62 22.36C46.34 22.36 46.07 22.24 45.88 22.02C45.53 21.61 45.59 21 45.99 20.65L50.22 17.07L38.02 2.66005L34.08 6.00005C33.67 6.35005 33.06 6.30005 32.71 5.89005C32.36 5.48005 32.41 4.87005 32.82 4.52005L37.5 0.550047C37.91 0.200047 38.52 0.250047 38.87 0.660047L52.33 16.55C52.68 16.96 52.62 17.57 52.22 17.92L47.25 22.13C47.06 22.29 46.84 22.36 46.62 22.36Z" fill="black"/>
<path d="M5.71999 22.36C5.43999 22.36 5.16999 22.24 4.97999 22.02C4.62999 21.61 4.67999 21 5.08999 20.65L29.2 0.230019C29.4 0.0600194 29.65 -0.0199806 29.91 1.93529e-05C30.17 0.0200194 30.4 0.140019 30.57 0.340019L44.03 16.23C44.2 16.43 44.28 16.68 44.26 16.94C44.24 17.2 44.12 17.43 43.92 17.6L38.57 22.13C38.16 22.47 37.55 22.42 37.2 22.02C36.85 21.61 36.91 21 37.31 20.65L41.92 16.75L29.71 2.34002L6.33999 22.13C6.15999 22.29 5.93999 22.36 5.71999 22.36Z" fill="black"/>
<path d="M62.11 50H44.77C42.59 50 40.53 49.15 38.99 47.61C37.44 46.06 36.59 44.01 36.59 41.83C36.59 37.32 40.26 33.66 44.76 33.66H62.11C62.19 33.66 62.34 33.66 62.52 33.72C63.03 33.89 63.3 34.44 63.13 34.95C62.98 35.4 62.52 35.67 62.07 35.6H44.77C41.33 35.6 38.54 38.4 38.54 41.83C38.54 43.49 39.19 45.06 40.37 46.24C41.54 47.41 43.11 48.06 44.78 48.06H62.1C62.55 47.99 63.01 48.26 63.16 48.71C63.33 49.22 63.05 49.77 62.55 49.94C62.35 50 62.2 50 62.11 50Z" fill="black"/>
<path d="M45.03 46.6101C42.4 46.6101 40.25 44.4701 40.25 41.8301C40.25 39.2001 42.39 37.05 45.03 37.05C47.66 37.05 49.81 39.1901 49.81 41.8301C49.81 44.4701 47.66 46.6101 45.03 46.6101ZM45.03 38.9901C43.46 38.9901 42.19 40.2601 42.19 41.8301C42.19 43.4001 43.46 44.67 45.03 44.67C46.6 44.67 47.87 43.4001 47.87 41.8301C47.87 40.2601 46.59 38.9901 45.03 38.9901Z" fill="black"/>
<path d="M59.28 64H4.72C2.57 64 0.809998 62.25 0.809998 60.09V21.39C0.809998 20.85 1.24 20.42 1.78 20.42H59.28C61.43 20.42 63.19 22.17 63.19 24.33V60.09C63.19 62.25 61.44 64 59.28 64ZM2.75 22.36V60.09C2.75 61.18 3.63 62.06 4.72 62.06H59.28C60.37 62.06 61.25 61.18 61.25 60.09V24.33C61.25 23.24 60.37 22.36 59.28 22.36H2.75Z" fill="black"/>
</g>
<defs>
<clipPath id="clip0_317_425">
<rect width="64" height="80" fill="white"/>
</clipPath>
</defs>
</svg>
